<svg width="34" height="34" viewBox="0 0 34 34" fill="none" xmlns="http://www.w3.org/2000/svg">
<rect width="34" height="34" rx="12" fill="#ECECEC"/>
<path d="M20.0779 11.5014C20.2368 11.3424 20.4255 11.2163 20.6332 11.1303C20.8409 11.0443 21.0635 11 21.2883 11C21.513 11 21.7356 11.0443 21.9433 11.1303C22.151 11.2163 22.3397 11.3424 22.4986 11.5014C22.6576 11.6603 22.7837 11.849 22.8697 12.0567C22.9557 12.2644 23 12.487 23 12.7117C23 12.9365 22.9557 13.1591 22.8697 13.3668C22.7837 13.5745 22.6576 13.7632 22.4986 13.9221L14.3286 22.0922L11 23L11.9078 19.6714L20.0779 11.5014Z" stroke="#27A6E5" stroke-width="2" stroke-linecap="round" stroke-linejoin="round"/>
</svg>
